<?xml version="1.0" encoding="utf-8"?>
<!-- Generator: Adobe Illustrator 15.0.2, SVG Export Plug-In . SVG Version: 6.00 Build 0)  -->
<!DOCTYPE svg PUBLIC "-//W3C//DTD SVG 1.1//EN" "http://www.w3.org/Graphics/SVG/1.1/DTD/svg11.dtd">
<svg version="1.1" id="Layer_1" xmlns="http://www.w3.org/2000/svg" xmlns:xlink="http://www.w3.org/1999/xlink" x="0px" y="0px"
	 width="68.415px" height="68.967px" viewBox="0 0 68.415 68.967" enable-background="new 0 0 68.415 68.967" xml:space="preserve">
<g>
	<g>
		<path fill="#FFCD32" d="M66.905,10.112c-1.545,0.01-4.955-0.01-4.955-0.01h-4.264c0,0-0.051,0.143,0.035,1.832
			c0.213,4.182-0.695,10.41-6.527,14.207c-4.256,2.771-9.064,2.824-13.875,0.465c-8-3.926-7.946-13.234-8.087-18.203
			c-0.072-2.539-0.779-6.445-7.925-6.445c-3.787,0-5.687,2.076-6.621,3.865c-0.709,1.355-0.748,2.715-0.748,2.715
			c-0.125,1.666-0.266,2.613-0.266,4.438c0,2.217,0.152,4.432,0.152,4.432s-0.002,25.33,27.057,25.33
			c26.965,0,27.516-25.111,27.516-25.111l0.018-5.824C68.415,11.801,68.45,10.102,66.905,10.112z"/>
	</g>
	<g>
		<path fill="#0F100F" d="M11.854,68.67c-0.285,0.17-0.76,0.297-1.256,0.297c-1.365,0-2.294-0.986-2.294-2.209
			c0-1.211,0.912-2.197,2.346-2.197c0.367,0,0.926,0.072,1.211,0.242l-0.27,0.947c-0.154-0.111-0.65-0.182-0.969-0.182
			c-0.815,0-1.184,0.557-1.184,1.189c0,0.645,0.379,1.201,1.156,1.201c0.494,0,0.891-0.127,1.072-0.236L11.854,68.67z"/>
		<path fill="#0F100F" d="M18.975,68.124h-1.613l-0.303,0.844h-1.174l1.768-4.406h1.135l1.658,4.406H19.25L18.975,68.124z
			 M17.725,67.116h0.926l-0.436-1.359L17.725,67.116z"/>
		<polygon fill="#0F100F" points="25.957,66.825 25.957,68.967 24.855,68.967 24.855,64.561 25.957,64.561 27.516,67.661 
			29.195,64.561 30.299,64.561 30.299,68.967 29.195,68.967 29.195,66.616 27.945,68.967 27.031,68.967 		"/>
		<path fill="#0F100F" d="M37.077,64.561c1.219,0,2.205,0.865,2.205,2.203c0,1.35-0.986,2.203-2.205,2.203
			c-1.217,0-2.202-0.871-2.202-2.203C34.875,65.409,35.86,64.561,37.077,64.561 M37.077,67.987c0.641,0,1.068-0.445,1.068-1.223
			c0-0.771-0.428-1.223-1.068-1.223c-0.639,0-1.068,0.436-1.068,1.223C36.008,67.542,36.438,67.987,37.077,67.987"/>
		<polygon fill="#0F100F" points="43.858,64.561 44.959,64.561 44.954,66.321 45.178,66.182 46.469,64.561 47.729,64.561 
			45.971,66.733 47.864,68.967 46.555,68.967 45.178,67.336 44.959,67.458 44.959,68.967 43.858,68.967 		"/>
		<path fill="#0F100F" d="M54.624,68.124h-1.615l-0.301,0.844h-1.174l1.768-4.406h1.135l1.658,4.406h-1.195L54.624,68.124z
			 M53.374,67.116h0.926l-0.436-1.359L53.374,67.116z"/>
		<polygon fill="#0F100F" points="62.68,65.608 62.68,68.967 61.579,68.967 61.579,65.608 60.202,65.608 60.202,64.561 
			64.057,64.561 64.057,65.608 		"/>
		<path fill="#0F100F" d="M19.627,9.268c-0.845,0-1.414-0.553-1.414-1.518c0-0.979,0.568-1.52,1.414-1.52
			c0.844,0,1.411,0.561,1.411,1.52C21.038,8.715,20.471,9.268,19.627,9.268z"/>
	</g>
	<g>
		<polygon fill="#222220" points="46.657,6.012 46.657,7.87 45.985,7.87 45.985,6.012 45.206,6.012 45.206,5.375 47.436,5.375 
			47.436,6.012 		"/>
		<polygon fill="#222220" points="48.102,6.659 48.102,7.87 47.436,7.87 47.436,5.375 48.102,5.375 48.985,7.073 49.936,5.375 
			50.604,5.375 50.604,7.87 49.936,7.87 49.936,6.538 49.229,7.87 48.713,7.87 		"/>
	</g>
	<g>
		<path fill="#0D0F0F" d="M66.122,17.631L66.12,7.741c0-0.346-0.279-0.625-0.625-0.625c-0.344,0-0.625,0.279-0.625,0.625
			l0.002,9.891v0.002l0,0c0,6.559-4.016,18.877-14.785,23.996v0.002c-0.004,0.004-0.008,0.004-0.014,0.006
			c-0.307,0.154-0.432,0.529-0.277,0.838l4.137,8.229c0.264,0.525,0.289,1.008,0.244,1.369c-0.012,0.107-0.051,0.4-0.414,0.836
			c-0.303,0.361-0.902,0.486-0.902,0.486l-9.027,2.41c-0.137-1.01-0.389-2.867-0.52-3.893l8.523-0.59
			c0.346-0.023,0.604-0.322,0.58-0.666c-0.023-0.346-0.33-0.605-0.666-0.58l-9.184,0.637c-0.17,0.012-0.326,0.092-0.438,0.223
			c-0.107,0.129-0.158,0.299-0.141,0.467c0.076,0.686,0.678,5.086,0.703,5.273c0.023,0.178,0.121,0.336,0.271,0.436
			c0.104,0.068,0.225,0.104,0.346,0.104c0.055,0,0.109-0.008,0.162-0.02l9.939-2.656c0,0,0.561-0.137,1.227-0.744
			c0.545-0.498,0.773-1.371,0.801-1.75c0.045-0.641-0.084-1.297-0.391-1.902l-3.855-7.672c10.859-5.525,14.93-18.09,14.93-24.838
			l0,0V17.631z"/>
		<path fill="#0D0F0F" d="M23.69,44.426c-0.309-0.15-0.684-0.027-0.838,0.283l-2.443,4.912c-0.104,0.209-0.285,0.598-0.834,0.936
			c-0.152,0.094-0.516,0.254-0.859,0.254c-0.588,0-0.957-0.32-0.957-0.32l-0.494-0.385l-6.994-5.504
			c0.725-0.717,2.061-2.031,2.801-2.752l5.586,6.467c0.225,0.26,0.619,0.289,0.881,0.064c0.26-0.227,0.289-0.621,0.064-0.881
			l-6.018-6.967c-0.111-0.129-0.269-0.207-0.439-0.215c-0.174-0.021-0.338,0.051-0.461,0.168c-0.502,0.469-3.662,3.59-3.797,3.723
			c-0.127,0.127-0.195,0.301-0.184,0.48c0.007,0.178,0.096,0.344,0.236,0.455l7.998,6.293c0,0,0.678,0.619,1.775,0.619
			c0.666,0,1.134-0.232,1.342-0.336c0.648-0.322,1.107-0.813,1.471-1.543l2.447-4.914C24.123,44.956,23.999,44.581,23.69,44.426z"/>
		<path fill="#0D0F0F" d="M58.389,15.44c0.346,0,0.625-0.264,0.625-0.588V7.706c0-0.326-0.279-0.59-0.625-0.59
			c-0.344,0-0.623,0.264-0.623,0.59v7.146C57.766,15.176,58.045,15.44,58.389,15.44z"/>
		<path fill="#0D0F0F" d="M61.942,15.44c0.346,0,0.627-0.264,0.627-0.588V7.706c0-0.326-0.281-0.59-0.627-0.59
			c-0.344,0-0.623,0.264-0.623,0.59v7.146C61.319,15.176,61.598,15.44,61.942,15.44z"/>
	</g>
	<path fill="#0D0F0F" d="M50.711,17.452c0-0.338-0.273-0.611-0.611-0.615v-0.002h-8.494l0,0l0,0c-0.342,0-0.617,0.275-0.617,0.617
		s0.275,0.617,0.617,0.617l0,0v0.016H50.1v-0.016C50.438,18.065,50.711,17.792,50.711,17.452z"/>
	<circle fill="#0D0F0F" cx="48.436" cy="23.69" r="0.619"/>
	<path fill="#0D0F0F" d="M50.292,20.76c0-0.344-0.277-0.621-0.619-0.623v-0.002h-8.066v0.002c-0.342,0.002-0.617,0.279-0.617,0.621
		c0,0.344,0.275,0.619,0.617,0.623v0.004h8.066v-0.002C50.014,21.379,50.292,21.102,50.292,20.76z"/>
	<path fill="#0D0F0F" d="M55.536,7.727c0-0.346-0.281-0.625-0.625-0.625c-0.346,0-0.625,0.279-0.625,0.625v9.875
		c-0.07,2.678-0.385,3.551-1.465,6.17c-1.621,3.922-4.734,7.098-8.545,8.711c-4.039,1.713-8.52,1.705-12.618-0.02
		c-4.057-1.707-7.158-4.863-8.736-8.887c-0.746-1.908-1.146-3.916-1.189-5.971v-1.887c0-0.518,0.42-0.938,0.937-0.938h2.576v4.086
		c0,0.283,0.076,6.93,6.836,10.061c2.078,0.961,4.071,1.301,5.85,1.301c2.453,0,4.498-0.645,5.787-1.191
		c3.414-1.443,4.701-3.861,4.754-3.963c0.254-0.49,0.512-0.896,0.582-1.385l-1.234-0.068c-0.002,0.01-0.367,0.898-0.863,1.498
		c-0.576,0.697-1.721,1.92-3.725,2.768c-2.035,0.861-6.121,1.992-10.626-0.094c-6.017-2.787-6.111-8.678-6.111-8.926v-4.086h23.625
		v-0.008c0.328-0.018,0.59-0.283,0.59-0.617c0-0.328-0.256-0.59-0.578-0.615v-0.008v-0.002H26.496V7.727
		c0,0-0.002-0.043-0.004-0.068c-0.338-3.004-2.291-5.66-5.123-6.924c-2.705-1.207-5.732-0.914-8.1,0.785
		c-1.152,0.826-2.066,2.064-2.723,3.555c-0.113,0.256-0.227,0.604-0.314,1.021c-0.07,0.34-0.045,0.824-0.342,1.02
		C9.471,7.391,8.682,7.35,7.704,7.002C7.116,6.793,6.442,6.297,5.749,5.77C4.629,4.915,3.241,3.84,1.844,4.288
		C0.963,4.569,0.471,5.129,0.178,5.813c-0.631,1.471,0.563,3.285,1.253,4.025c2.488,2.664,6.02,2.998,7.264,3.127
		c0.918,0.094,1.039,0.354,1.047,0.809c0.004,0.279,0.002,1.832,0.002,1.986c0.002,2.734,0.187,4.992,0.589,7.107
		C12.625,34.958,21.28,43.54,32.918,45.27c1.467,0.217,2.942,0.326,4.442,0.326c3.072,0,6.229-0.461,9.549-1.385
		c0.332-0.092,0.527-0.438,0.434-0.77c-0.092-0.334-0.434-0.529-0.77-0.434c-4.766,1.326-9.172,1.664-13.473,1.025
		c-11.095-1.648-19.349-9.848-21.537-21.398c-0.387-2.035-0.566-4.221-0.568-6.875c0-0.133-0.01-1.752,0.002-1.975
		c0.048-0.865-0.584-1.869-1.748-1.979C5.817,11.483,3.831,10.59,2.374,9.02C1.663,8.25,1.088,7.088,1.333,6.34
		c0.041-0.119,0.189-0.625,0.878-0.85C3.051,5.219,4,6.006,4.991,6.764c0.76,0.576,1.34,1.014,2.445,1.42
		C9.147,8.813,10.247,8.52,10.793,8c0.499-0.471,0.491-0.813,0.665-1.65c0.063-0.305,0.174-0.605,0.234-0.742
		c0.566-1.283,1.336-2.377,2.307-3.072c2.031-1.457,4.535-1.699,6.859-0.658c2.039,0.908,3.55,2.652,4.15,4.707
		c0.111,0.387,0.215,0.781,0.238,1.189c0.016,0.287,0,1.15,0,1.15v4.607H22.67c-1.205,0-2.185,0.98-2.185,2.188v1.9h0.623
		l-0.623,0.014c0.045,2.201,0.474,4.354,1.275,6.4c1.699,4.34,5.044,7.742,9.414,9.582c2.213,0.932,4.532,1.396,6.842,1.396
		c2.293,0,4.58-0.459,6.748-1.379c4.109-1.74,7.467-5.16,9.211-9.385c1.125-2.725,1.482-3.725,1.561-6.613h-0.004
		c0-0.004,0.004-0.01,0.004-0.016V7.727z"/>
</g>
</svg>
