<?xml version="1.0" encoding="utf-8"?>
<!-- Generator: Adobe Illustrator 15.0.2, SVG Export Plug-In . SVG Version: 6.00 Build 0)  -->
<!DOCTYPE svg PUBLIC "-//W3C//DTD SVG 1.1//EN" "http://www.w3.org/Graphics/SVG/1.1/DTD/svg11.dtd">
<svg version="1.1" id="Layer_1" xmlns="http://www.w3.org/2000/svg" xmlns:xlink="http://www.w3.org/1999/xlink" x="0px" y="0px"
	 width="33.936px" height="33.937px" viewBox="0 0 33.936 33.937" enable-background="new 0 0 33.936 33.937" xml:space="preserve">
<g>
	<g>
		<path fill="#201600" d="M13.475,12.949h1.982v-0.712c0-0.778,0.063-1.456,0.19-2.032c0.127-0.575,0.334-1.046,0.622-1.411
			c0.288-0.363,0.661-0.635,1.118-0.813c0.458-0.178,1.025-0.267,1.703-0.267c0.543,0,1.021,0.034,1.436,0.102
			c0.416,0.067,0.852,0.194,1.309,0.381l-0.457,1.702c-0.391-0.168-0.759-0.279-1.105-0.33c-0.348-0.051-0.674-0.076-0.979-0.076
			c-0.441,0-0.783,0.068-1.029,0.203c-0.246,0.137-0.424,0.335-0.533,0.598c-0.111,0.263-0.178,0.584-0.204,0.966
			c-0.025,0.381-0.038,0.825-0.038,1.334v0.355h3.379v1.778h-3.379v10.928h-2.032V14.728h-1.982V12.949z"/>
	</g>
	<rect x="1" y="1" fill="none" stroke="#221F1F" stroke-width="2" stroke-miterlimit="10" width="31.936" height="31.937"/>
</g>
</svg>
