<?xml version="1.0" encoding="utf-8"?>
<!-- Generator: Adobe Illustrator 16.0.0, SVG Export Plug-In . SVG Version: 6.00 Build 0)  -->
<!DOCTYPE svg PUBLIC "-//W3C//DTD SVG 1.1//EN" "http://www.w3.org/Graphics/SVG/1.1/DTD/svg11.dtd">
<svg version="1.1" id="Layer_1" xmlns="http://www.w3.org/2000/svg" xmlns:xlink="http://www.w3.org/1999/xlink" x="0px" y="0px"
	 width="33.645px" height="33.645px" viewBox="0 0 33.645 33.645" enable-background="new 0 0 33.645 33.645" xml:space="preserve">
<path fill="#FFFFFF" d="M19.651,16.822L33.06,3.415c0.78-0.781,0.78-2.048,0-2.829c-0.781-0.781-2.049-0.781-2.83,0L16.822,13.994
	L3.417,0.588c-0.781-0.781-2.048-0.781-2.83,0c-0.78,0.781-0.78,2.047,0,2.829l13.407,13.406L0.585,30.231
	c-0.781,0.779-0.781,2.047,0,2.827C0.976,33.45,1.488,33.645,2,33.645s1.024-0.194,1.415-0.586l13.408-13.407l13.407,13.407
	c0.391,0.392,0.902,0.586,1.415,0.586s1.024-0.194,1.415-0.586c0.78-0.78,0.78-2.048,0-2.827L19.651,16.822z"/>
</svg>
